#!OML:ASF F:\VICON\USERDATA\INSTALL\rory3\rory3.ASF
:FULLY-SPECIFIED
:DEGREES
3293
root 0.172952 15.1647 -2.0246 4.27205 9.11111 1.71999
lowerback 32.3347 2.41267 5.86856
upperback 10.5577 5.30536 4.80542
thorax -5.52484 2.57559 0.129797
lowerneck -13.7195 15.736 1.10652
upperneck -2.25967 20.9119 0.297523
head 1.56738 10.5153 1.05491
rclavicle -7.4743e-014 -1.27222e-014
rhumerus 4.83295 4.14205 -43.6544
rradius 110.825
rwrist -2.13262
rhand 16.6867 8.58721
rfingers 7.12502
rthumb 41.4368 -16.1887
lclavicle -7.4743e-014 -1.27222e-014
lhumerus 30.1692 -31.4945 69.0037
lradius 95.6721
lwrist 0.339633
lhand -5.79236 20.9659
lfingers 7.12502
lthumb 20.0319 49.9533
rfemur -30.8163 -3.74713 13.5753
rtibia 50.7469
rfoot -18.7878 -8.68854
rtoes -18.5395
lfemur -32.2237 -11.1068 -16.6319
ltibia 44.7294
lfoot -12.1826 0.299732
ltoes -16.2988
3294
root 0.172014 15.162 -2.02645 4.29647 8.99897 1.80919
lowerback 32.3931 2.43831 5.87191
upperback 10.588 5.33059 4.71055
thorax -5.5051 2.58966 0.0118576
lowerneck -13.7457 15.9682 1.11748
upperneck -2.39235 21.2332 -0.123962
head 1.57439 10.6677 0.948212
rclavicle 9.54166e-015 1.90833e-014
rhumerus 5.01427 3.86052 -44.1113
rradius 110.898
rwrist -1.67539
rhand 16.6476 8.66311
rfingers 7.12502
rthumb 41.4002 -16.1248
lclavicle 9.54166e-015 1.90833e-014
lhumerus 30.2133 -31.3001 69.5788
lradius 95.626
lwrist 0.0601358
lhand -5.61377 20.7743
lfingers 7.12502
lthumb 20.2036 49.7436
rfemur -30.8997 -3.67918 13.4787
rtibia 50.8111
rfoot -18.7336 -8.68442
rtoes -18.5597
lfemur -32.2477 -11.0222 -16.7232
ltibia 44.7685
lfoot -12.2271 0.314035
ltoes -16.3443
3295
root 0.171873 15.1557 -2.02833 4.35365 8.88274 1.89141
lowerback 32.5036 2.45753 5.89247
upperback 10.5556 5.35913 4.58972
thorax -5.57599 2.6017 -0.15075
lowerneck -13.8176 16.1761 1.21564
upperneck -2.42518 21.5038 -0.533143
head 1.63276 10.7928 0.844358
rclavicle 3.18055e-014 -1.11319e-014
rhumerus 5.1156 3.65193 -44.5635
rradius 111.004
rwrist -1.36305
rhand 16.647 8.64927
rfingers 7.12502
rthumb 41.3996 -16.1388
lclavicle 3.18055e-014 -1.11319e-014
lhumerus 30.2398 -31.1805 70.1082
lradius 95.5614
lwrist -0.147566
lhand -5.52458 20.6807
lfingers 7.12502
lthumb 20.2893 49.6409
rfemur -31.0224 -3.63557 13.3901
rtibia 50.8992
rfoot -18.7806 -8.63196
rtoes -18.7608
lfemur -32.3186 -10.9127 -16.806
ltibia 44.8047
lfoot -12.2536 0.28929
ltoes -16.2006
3296
root 0.17128 15.151 -2.02881 4.39655 8.81822 1.97032
lowerback 32.6415 2.44255 5.98715
upperback 10.5067 5.36829 4.43666
thorax -5.66751 2.6048 -0.386387
lowerneck -13.9699 16.3123 1.21582
upperneck -2.37677 21.6866 -0.71969
head 1.6965 10.879 0.821816
rclavicle 3.18055e-014 -2.70347e-014
rhumerus 5.20692 3.39427 -45.0835
rradius 111.099
rwrist -1.06574
rhand 16.7655 8.67096
rfingers 7.12502
rthumb 41.5108 -16.0809
lclavicle 3.18055e-014 -2.70347e-014
lhumerus 30.4488 -31.1559 70.4816
lradius 95.4242
lwrist -0.243114
lhand -5.86573 20.6471
lfingers 7.12502
lthumb 19.9614 49.6418
rfemur -31.1329 -3.62493 13.3056
rtibia 51.0119
rfoot -18.8313 -8.60469
rtoes -19.1077
lfemur -32.3599 -10.8321 -16.8919
ltibia 44.8251
lfoot -12.2404 0.272788
ltoes -16.3344
3297
root 0.170191 15.1513 -2.02832 4.42938 8.77677 2.0851
lowerback 32.6763 2.43621 6.0208
upperback 10.5197 5.3604 4.31322
thorax -5.6517 2.60399 -0.541441
lowerneck -14.0366 16.4088 1.14712
upperneck -2.44217 21.8319 -0.902602
head 1.69961 10.9492 0.790256
rclavicle -6.67916e-014 1.11319e-014
rhumerus 5.39743 3.10076 -45.5303
rradius 111.18
rwrist -0.930318
rhand 16.9506 8.64209
rfingers 7.12502
rthumb 41.6845 -16.0528
lclavicle -6.67916e-014 1.11319e-014
lhumerus 30.6482 -31.0869 70.8536
lradius 95.3936
lwrist -0.361829
lhand -6.45015 20.3072
lfingers 7.12502
lthumb 19.3996 49.3595
rfemur -31.2533 -3.62563 13.1872
rtibia 51.1392
rfoot -18.8434 -8.59158
rtoes -19.1205
lfemur -32.361 -10.7734 -17.0213
ltibia 44.8275
lfoot -12.1839 0.231489
ltoes -16.2705
3298
root 0.167735 15.1488 -2.02956 4.46051 8.61998 2.27291
lowerback 32.7075 2.50277 5.94635
upperback 10.567 5.40345 4.15438
thorax -5.60005 2.62861 -0.691389
lowerneck -14.126 16.4628 1.10793
upperneck -2.5878 21.9179 -1.13044
head 1.68835 10.9896 0.736491
rclavicle -5.725e-014 -1.27222e-014
rhumerus 5.594 2.72633 -45.9148
rradius 111.253
rwrist -0.931746
rhand 17.0655 8.56818
rfingers 7.12502
rthumb 41.7922 -16.0911
lclavicle -5.725e-014 -1.27222e-014
lhumerus 30.8631 -31.0353 71.1728
lradius 95.4177
lwrist -0.595141
lhand -6.68629 19.7683
lfingers 7.12502
lthumb 19.1725 48.8433
rfemur -31.3783 -3.54409 12.9806
rtibia 51.2942
rfoot -18.8282 -8.37525
rtoes -18.1595
lfemur -32.3396 -10.643 -17.237
ltibia 44.8258
lfoot -12.1651 0.248336
ltoes -16.2527
3299
root 0.164969 15.1441 -2.03188 4.44152 8.35824 2.335
lowerback 32.849 2.60137 5.91948
upperback 10.5919 5.51294 4.03518
thorax -5.6193 2.68075 -0.853465
lowerneck -14.1517 16.4972 1.0602
upperneck -2.79692 21.9819 -1.41617
head 1.65124 11.0192 0.656377
rclavicle 2.8625e-014 -5.08889e-014
rhumerus 5.74943 2.42054 -46.3082
rradius 111.36
rwrist -0.853309
rhand 17.1594 8.36654
rfingers 7.12502
rthumb 41.8803 -16.2635
lclavicle 2.8625e-014 -5.08889e-014
lhumerus 30.9955 -30.8019 71.6814
lradius 95.2894
lwrist -1.3333
lhand -5.97529 19.2017
lfingers 7.12502
lthumb 19.8561 48.2074
rfemur -31.4521 -3.32959 12.9025
rtibia 51.4298
rfoot -18.6866 -8.09912
rtoes -16.6182
lfemur -32.2797 -10.3925 -17.3228
ltibia 44.8221
lfoot -12.1676 0.289488
ltoes -16.0493
